# xmcd CD database file
#
# Track frame offsets:
#	150
#	16122
#	28522
#	41795
#	58292
#	72082
#	87407
#	102665
#	115460
#	130672
#	159595
#
# Disc length: 2248 seconds
#
# Revision: 2
# Processed by: cddbd v1.5.1PL0 Copyright (c) Steve Scherf et al.
# Submitted via: CDex 1.51
#
DISCID=9508c60b
DTITLE=For Stars - We Are All Beautiful People
DYEAR=2001
DGENRE=americana
TTITLE0=I Got Connected
TTITLE1=How It Goes
TTITLE2=Back In France
TTITLE3=Beautifully...
TTITLE4=In Open Plains
TTITLE5=The Astronaut Song
TTITLE6=People Party
TTITLE7=Only Star
TTITLE8=Wires
TTITLE9=There Was A River
TTITLE10=If I Could
EXTD=YEAR: 2001
EXTT0=
EXTT1=
EXTT2=
EXTT3=
EXTT4=
EXTT5=
EXTT6=
EXTT7=
EXTT8=
EXTT9=
EXTT10=
PLAYORDER=
